<?xml version="1.0" encoding="UTF-8" standalone="no"?>
<svg width="270.933mm" height="177.535mm"
 xmlns="http://www.w3.org/2000/svg" xmlns:xlink="http://www.w3.org/1999/xlink"  version="1.2" baseProfile="tiny">
<desc>Created by EvoPdf</desc>
<defs>
</defs>
<g fill="none" stroke="black" stroke-width="1" fill-rule="evenodd" stroke-linecap="square" stroke-linejoin="bevel" >

<g fill="#000000" fill-opacity="1" stroke="#000000" stroke-opacity="1" stroke-width="1" stroke-linecap="butt" stroke-linejoin="miter" stroke-miterlimit="2" transform="matrix(1,0,0,1,0,0)"
>
</g>

<g fill="#000000" fill-opacity="1" stroke="#000000" stroke-opacity="1" stroke-width="1" stroke-linecap="butt" stroke-linejoin="miter" stroke-miterlimit="2" transform="matrix(1,0,0,1,0,0)"
>
</g>

<g fill="#000000" fill-opacity="1" stroke="#000000" stroke-opacity="1" stroke-width="1" stroke-linecap="butt" stroke-linejoin="miter" stroke-miterlimit="2" transform="matrix(1,0,0,1,0,0)"
>
</g>

<g fill="#000000" fill-opacity="1" stroke="#000000" stroke-opacity="1" stroke-width="1" stroke-linecap="butt" stroke-linejoin="miter" stroke-miterlimit="2" transform="matrix(1,0,0,1,0,0)"
>
</g>

<g fill="#000000" fill-opacity="1" stroke="#000000" stroke-opacity="1" stroke-width="1" stroke-linecap="butt" stroke-linejoin="miter" stroke-miterlimit="2" transform="matrix(50.3846,0,0,50.3846,8.15385,8)"
>
</g>

<g fill="#000000" fill-opacity="1" stroke="none" transform="matrix(50.3846,0,0,50.3846,8.15385,8)"
>
<path vector-effect="none" fill-rule="nonzero" d="M13.5,0 C12.2,0 11,0.4 10,1 C9,0.4 7.8,0 6.5,0 C2.9,0 0,2.9 0,6.4 C0,10 2.9,12.8 6.5,12.8 C7.7,12.8 8.9,12.4 9.9,11.8 C10.9,12.5 12.2,12.9 13.5,12.9 C17.1,12.9 20,10 20,6.4 C20,2.9 17.1,0 13.5,0 M6.5,11.9 C3.5,11.9 1,9.5 1,6.5 C1,3.5 3.5,1 6.5,1 C7.4,1 8.3,1.2 9.1,1.7 C7.8,2.9 6.9,4.6 6.9,6.5 C6.9,8.4 7.7,10.1 9,11.2 C8.3,11.6 7.4,11.9 6.5,11.9 M9.9,10.7 C8.7,9.7 8,8.2 8,6.5 C8,4.8 8.8,3.3 10,2.3 C11.2,3.3 12,4.8 12,6.5 C11.9,8.2 11.1,9.7 9.9,10.7 M13.5,12 C12.5,12 11.6,11.7 10.8,11.3 C12.2,10.1 13,8.4 13,6.5 C13,4.6 12.2,2.9 10.9,1.7 C11.6,1.3 12.5,1 13.5,1 C16.5,1 19,3.5 19,6.5 C19,9.5 16.5,12 13.5,12 "/>
</g>

<g fill="#000000" fill-opacity="1" stroke="#000000" stroke-opacity="1" stroke-width="1" stroke-linecap="butt" stroke-linejoin="miter" stroke-miterlimit="2" transform="matrix(50.3846,0,0,50.3846,8.15385,8)"
>
</g>

<g fill="#000000" fill-opacity="1" stroke="#000000" stroke-opacity="1" stroke-width="1" stroke-linecap="butt" stroke-linejoin="miter" stroke-miterlimit="2" transform="matrix(50.3846,0,0,50.3846,8.15385,8)"
>
</g>

<g fill="#000000" fill-opacity="1" stroke="#000000" stroke-opacity="1" stroke-width="1" stroke-linecap="butt" stroke-linejoin="miter" stroke-miterlimit="2" transform="matrix(1,0,0,1,0,0)"
>
</g>

<g fill="#000000" fill-opacity="1" stroke="#000000" stroke-opacity="1" stroke-width="1" stroke-linecap="butt" stroke-linejoin="miter" stroke-miterlimit="2" transform="matrix(1,0,0,1,0,0)"
>
</g>

<g fill="#000000" fill-opacity="1" stroke="#000000" stroke-opacity="1" stroke-width="1" stroke-linecap="butt" stroke-linejoin="miter" stroke-miterlimit="2" transform="matrix(1,0,0,1,0,0)"
>
</g>

<g fill="#000000" fill-opacity="1" stroke="#000000" stroke-opacity="1" stroke-width="1" stroke-linecap="butt" stroke-linejoin="miter" stroke-miterlimit="2" transform="matrix(1,0,0,1,0,0)"
>
</g>

<g fill="#000000" fill-opacity="1" stroke="#000000" stroke-opacity="1" stroke-width="1" stroke-linecap="butt" stroke-linejoin="miter" stroke-miterlimit="2" transform="matrix(1,0,0,1,0,0)"
>
</g>

<g fill="#000000" fill-opacity="1" stroke="#000000" stroke-opacity="1" stroke-width="1" stroke-linecap="butt" stroke-linejoin="miter" stroke-miterlimit="2" transform="matrix(1,0,0,1,0,0)"
>
</g>
</g>
</svg>
